<?xml version="1.0" encoding="utf-8" ?>
<svg xmlns="http://www.w3.org/2000/svg" xmlns:xlink="http://www.w3.org/1999/xlink" width="353" height="80">
	<path fill="#0148A1" d="M51.5283 49.443C51.3975 49.5653 51.2556 49.6719 51.1098 49.7757C46.2127 53.2594 34.3816 54.4092 28.5631 53.4419C25.8902 52.9975 23.1752 51.9706 21.5509 49.6833C20.3425 47.9815 20.0012 45.8764 20.3552 43.8414C20.9326 40.5222 23.1132 37.6462 25.8312 35.7395C30.1216 32.7297 36.6766 31.5683 41.754 32.4632C43.9904 32.8573 46.3095 33.8629 47.6443 35.7848C48.2742 36.6918 48.6113 37.7821 48.3987 38.8866C47.6725 42.6585 42.5543 44.7895 39.2276 45.508C37.4201 45.8984 34.3944 45.9303 32.871 46.976C32.5444 47.2002 32.5707 47.3754 32.501 47.7402C32.7046 48.1086 32.945 48.4216 33.2785 48.6811C38.2532 52.5524 45.3582 48.562 50.7691 47.906L51.5283 49.443ZM36.6844 35.2858C34.7223 36.8154 32.3132 39.558 31.9883 42.1233C31.9487 42.4363 32.0893 42.6956 32.1948 42.9881C32.8891 43.308 33.3818 43.0995 34.0813 42.8402L34.192 42.7984C35.9925 41.8886 38.1791 39.9926 38.8254 38.0126C39.0376 37.3622 39.0001 36.8993 38.7451 36.2723C38.2631 35.5827 37.4513 35.4739 36.6844 35.2858Z"/>
	<path fill="#E93633" d="M300.289 47.9689C300.479 44.9609 300.479 41.6615 302.315 39.1236C304.988 35.428 310.289 33.2042 314.66 32.5104C318.409 31.9156 323.28 31.9874 326.471 34.3266C327.427 35.0278 328.166 35.9675 328.336 37.1738C328.537 38.6024 327.896 40.2367 327.043 41.3617C324.935 44.1392 320.88 45.1787 317.591 45.6256C316.187 46.1077 314.596 46.0909 313.21 46.5956C312.637 46.8041 312.495 46.9657 312.249 47.4964C312.346 47.9609 312.606 48.2572 312.946 48.5734C316.264 51.6548 323.462 49.8615 327.388 48.7345C329.095 48.2446 331.09 47.411 332.85 47.3465L333.128 47.7631C333.103 47.8748 333.071 47.9762 333.019 48.079C332.244 49.631 328.534 51.0814 326.978 51.6208C320.925 53.7198 312.528 54.8475 306.387 52.7009C304.471 52.0311 302.93 50.8606 301.135 49.9911C299.834 51.321 294.366 52.4786 292.463 52.8442C286.817 53.9294 278.772 54.8405 273.785 51.438C272.09 50.2811 270.93 48.623 270.55 46.5941Q270.464 46.1378 270.423 45.6753Q270.382 45.2128 270.386 44.7485Q270.391 44.2842 270.441 43.8226Q270.492 43.361 270.587 42.9065Q270.682 42.4521 270.822 42.0092Q270.961 41.5663 271.144 41.1393Q271.326 40.7123 271.549 40.3052Q271.773 39.8981 272.035 39.515C275.19 34.9142 280.767 33.3535 285.941 32.3749C289.177 32.2081 293.091 31.9214 296.226 32.8816C297.107 33.1517 298.064 33.6029 298.502 34.4582C298.872 35.1807 298.777 36.0012 298.534 36.7479C297.987 38.434 296.414 41.0287 294.816 41.8378C294.56 41.1369 291.017 36.9074 290.011 36.3655C288.997 35.8197 287.832 35.7275 286.737 36.0693C284.981 36.6176 283.68 38.1111 282.85 39.6958C281.809 41.6829 281.243 44.3088 281.938 46.4986C282.334 47.7439 283.168 48.8317 284.341 49.436C287.974 51.3065 296.403 49.1952 300.289 47.9689ZM316.147 35.6248C314.507 37.3229 312.142 41.1621 312.173 43.6329C312.174 43.6858 312.177 43.7378 312.181 43.7904L312.345 43.5754L313.033 43.7149L313.588 43.0928C315.735 42.3072 317.753 40.3218 318.715 38.2489C318.99 37.6557 319.094 37.1545 318.992 36.5053C318.628 36.0105 318.397 35.6907 317.739 35.5901C317.252 35.5157 316.632 35.5693 316.147 35.6248Z"/>
	<path fill="#E93633" d="M247.761 32.9213C250.092 32.7758 258.113 31.8392 259.815 33.0306C260.025 33.6892 259.921 34.9169 260.466 35.2289C262.71 33.7637 265.935 31.6104 268.75 32.1884C269.488 32.3398 270.086 32.6916 270.503 33.3282C270.999 34.0861 271.116 35.0711 270.921 35.9449C270.711 36.8817 270.225 38.9447 269.434 39.4731C268.535 40.212 267.639 40.6979 266.494 40.9608C265.172 40.0375 262.074 38.1205 260.494 38.4013C259.763 38.5311 259.205 39.0079 258.797 39.6087C256.488 43.0069 256.617 52.3108 252.284 53.1518C250.708 53.4577 245.09 53.9337 243.652 53.4335C242.788 52.4688 243.389 51.3217 242.788 50.3553C240.291 52.958 231.12 53.6538 227.532 53.7288C224.421 53.7938 220.622 53.5827 217.862 52.0821C216.703 51.4518 215.568 50.481 214.41 49.9454C211.919 52.4781 202.959 53.7006 199.461 53.7226C198.399 53.7293 197.124 53.5353 196.335 52.7692C195.712 52.1631 195.514 51.3299 195.513 50.486C195.507 48.0496 199.43 40.0851 197.878 38.5425C197.396 38.0633 196.629 37.7303 195.939 37.7337C195.337 37.7367 194.879 37.9133 194.451 38.3448C193.246 39.5578 191.9 50.8663 189.453 52.9572C186.027 53.5433 182.286 53.2889 178.808 53.2636C180.613 51.3702 182.766 43.1613 182.71 40.5389C182.687 39.4451 182.518 37.7552 181.687 36.9381C181.375 36.6311 181.14 36.7003 180.74 36.7077C177.121 38.8922 176.972 50.05 173.969 52.5525C172.343 53.9076 165.847 53.7154 163.779 53.204C163.295 53.0842 163.262 53.0385 162.981 52.628L162.869 51.3635C162.307 51.0412 161.695 51.1903 161.078 51.3562C157.612 52.288 150.109 55.1101 146.851 53.2535C146.234 52.9019 145.858 52.3991 145.676 51.7116C145.002 49.1647 149.673 39.3465 147.572 38.1332C146.872 37.7293 145.835 37.7798 145.087 37.9583C144.413 38.3483 144.142 38.7755 143.941 39.5199C143.099 42.6345 141.71 51.1488 139.568 52.9737C136.029 53.4587 132.437 53.3274 128.874 53.2765C129.556 52.4823 132.537 43.924 132.925 42.4378C133.178 41.4682 133.367 40.4503 133.29 39.4448C133.247 38.8765 133.093 38.4161 132.806 37.9255C132.239 37.5109 131.884 37.2678 131.138 37.395C130.317 37.5349 129.726 38.017 129.263 38.6874C126.978 41.9956 126.622 51.0159 123.254 52.8969C120.175 54.3248 115.196 53.3177 111.813 53.3092C113.665 51.948 115.635 45.6138 115.97 43.313C116.022 42.9541 116.034 42.592 115.969 42.234C114.217 42.6265 112.389 42.7023 110.604 42.8478C109.571 46.6155 107.545 49.0332 104.146 50.9721C99.214 53.7846 93.0064 54.4856 87.5381 52.9843C86.4087 52.6743 85.0684 52.3218 84.0716 51.6891C83.3291 51.2179 82.3811 50.0941 81.6111 49.8411C75.5496 53.162 63.9427 55.0045 57.2109 53.043C54.8084 52.3429 53.1983 51.2586 51.5283 49.443L50.7691 47.906C50.3695 44.5109 50.6482 41.6217 52.8325 38.846C55.8989 34.9496 61.2779 32.9567 66.0796 32.3979C69.4019 32.0112 75.2852 31.7928 77.9954 33.9161C78.5138 34.3222 78.7338 34.7861 78.8072 35.4286C78.9735 36.8831 77.6897 38.7048 76.8235 39.763C76.1725 40.5584 75.4678 41.3171 74.7736 42.0749C73.445 40.0335 71.3696 36.374 68.8704 35.8261C67.714 35.5727 66.5472 35.8536 65.5685 36.4915C63.5559 37.8036 62.2282 40.3842 61.755 42.6821C61.4102 44.3565 61.4572 46.2958 62.4278 47.7668C63.2299 48.9826 64.4715 49.6571 65.8753 49.9346C69.6932 50.6893 76.95 49.2503 80.5789 47.8319C80.5892 47.8098 80.6 47.7879 80.6097 47.7655C80.8589 47.1894 80.5339 46.0168 80.5562 45.3523C80.7509 39.5537 83.043 36.6211 88.3527 34.2764C93.264 32.1077 99.8892 31.3695 104.993 33.3642C107.699 34.4219 109.638 36.4612 110.776 39.1223C110.848 39.2913 110.906 39.4694 110.953 39.6467C112.643 39.8675 115.214 40.2157 116.707 39.1321C116.768 39.0876 116.825 39.0382 116.88 38.9866C117.872 37.5152 118.431 35.391 118.098 33.6211Q118.038 33.2913 117.846 33.0161C121.831 32.6801 125.622 32.4505 129.621 32.7915C129.63 32.8028 129.639 32.814 129.648 32.8255C130.12 33.4243 129.953 34.4821 130.499 34.8435C133.623 33.3707 137.546 31.4484 141.044 32.6935C142.501 33.2122 143.525 34.223 144.387 35.4776C147.479 33.6029 152.563 31.5604 156.219 32.4543C157.158 32.6839 157.989 33.179 158.503 34.0152C160.124 36.6472 157.543 45.0661 156.754 48.1589C156.649 48.5727 156.462 48.9086 156.204 49.2453C158.792 49.3614 161.832 49.3825 163.893 47.5244C166.689 45.003 167.903 38.2497 168.051 34.5743C168.073 34.0318 168.107 33.4616 167.832 32.9728C171.384 32.7137 176.458 31.8124 179.844 32.8983C180.121 33.4242 180.285 33.9396 180.441 34.5121C182.997 35.0465 190.141 28.9774 193.684 34.6513C193.809 34.8514 193.894 35.0797 193.945 35.3092C197.33 33.8446 203.222 31.2611 206.871 32.6927C207.765 33.0434 208.398 33.6821 208.771 34.5634C210.564 38.7984 204.706 48.0757 207.742 49.3592C208.886 49.8427 211.235 48.9822 212.313 48.5219C212.727 48.3455 213.108 48.1068 213.472 47.8437C213.477 47.832 213.483 47.8204 213.488 47.8086C213.844 46.9814 213.603 45.738 213.691 44.8256C214.233 39.1701 217.171 36.193 222.399 34.0507C227.186 32.0895 233.08 31.4058 237.956 33.439C239.392 34.0375 241.104 34.9998 241.713 36.5188C242.102 37.4882 241.882 38.5139 241.475 39.4344C240.305 42.0806 238.048 43.5137 235.426 44.5212C233.445 45.2825 226.97 46.1112 226.132 48.022C226.056 48.1957 226.174 48.4665 226.218 48.6512C227.388 49.858 230.058 49.9919 231.633 50.0172C233.758 50.0514 242.245 49.0905 243.8 47.6844C243.809 47.6766 243.817 47.6681 243.825 47.66C246.69 44.9879 247.892 38.3295 248.037 34.4832C248.057 33.953 248.048 33.386 247.761 32.9213ZM96.8315 35.8712C94.159 37.4383 92.2526 40.5113 91.4831 43.4637C91.0679 45.0565 90.612 47.2765 91.5062 48.784C91.8277 49.3259 92.5615 50.0617 93.1856 50.2252Q93.3579 50.2698 93.5357 50.2789C95.6173 49.741 96.8941 48.3263 97.9652 46.5123C99.3357 44.1916 100.572 40.2411 99.855 37.5524C99.6754 36.879 99.3388 36.2949 98.7242 35.9374C98.1043 35.5767 97.4948 35.7267 96.8315 35.8712ZM229.734 35.6246C228.047 37.1239 225.776 39.5049 225.645 41.902C225.611 42.5115 225.707 42.69 226.084 43.1344C226.464 43.0726 226.55 43.0916 226.803 42.8023C228.755 42.2021 230.359 40.2794 231.282 38.5194C231.625 37.8656 231.83 37.1983 231.682 36.4589C231.306 35.9695 231.085 35.7088 230.436 35.5983C230.214 35.5605 229.956 35.595 229.734 35.6246Z"/>
</svg>
